<svg width="300" height="75" version="1.1" xmlns="http://www.w3.org/2000/svg" desc="Created with imagetracer.js version 1.2.6" ><path fill="rgb(38,77,151)" stroke="rgb(38,77,151)" stroke-width="1" opacity="0.9647058823529412" d="M 75.5 14 L 88.5 14 Q 89.5 14 89 18.5 L 87.5 20 L 70.5 20 L 70.5 19 L 77 16.5 L 75.5 14 Z " /><path fill="rgb(38,77,151)" stroke="rgb(38,77,151)" stroke-width="1" opacity="0.9647058823529412" d="M 98 14 L 106.5 14 L 109 16.5 L 125.5 37 L 128 35.5 L 128.5 33 L 129 36.5 L 123 45.5 L 127.5 49 L 130.5 48 L 133 49.5 L 130 50 L 131 52.5 L 128.5 53 L 119 41 Q 116.3 42.1 117 39.5 L 109.5 31 L 107 31.5 L 107 52.5 Q 105.5 55.5 99.5 54 L 98 52.5 L 98 14 Z " /><path fill="rgb(38,77,151)" stroke="rgb(38,77,151)" stroke-width="1" opacity="0.9647058823529412" d="M 73.5 36 L 79 36.5 L 73.5 37 L 73.5 36 Z " /><path fill="rgb(38,77,151)" stroke="rgb(38,77,151)" stroke-width="1" opacity="0.9647058823529412" d="M 80.5 47 L 86 47.5 Q 84.8 50.3 83.5 48 Q 79.5 48.8 80.5 47 Z " /><path fill="rgb(38,77,151)" stroke="rgb(38,77,151)" stroke-width="1" opacity="0.9647058823529412" d="M 88.5 52 L 89 54 L 78 53.5 L 87.5 53 L 88.5 52 Z " /><path fill="rgb(0,0,0)" stroke="rgb(0,0,0)" stroke-width="1" opacity="0" d="M 0 0 L 299.5 0 L 300 0.5 L 300 75 L 0.5 75 L 0 74.5 L 0 0 Z M 4 11 L 5 23 L 9 29 L 10 34 L 19 52 L 19 54 Q 22 53 22 56 L 36 56 L 41 46 Q 40 41 43 42 L 43 39 L 45 37 L 52 20 L 52 55 L 54 56 L 93 56 L 93 47 L 92 46 L 92 44 L 70 44 L 69 39 L 89 39 L 90 38 Q 92 29 88 27 L 70 27 L 69 23 L 91 23 L 92 22 L 92 13 L 91 11 L 55 11 L 54 12 L 53 11 L 40 11 L 35 19 Q 36 23 33 22 L 31 30 L 29 32 Q 30 35 27 34 L 24 26 Q 25 21 22 22 L 22 19 L 19 13 L 18 11 L 4 11 Z M 97 11 L 94 12 L 94 55 L 96 56 L 111 56 L 111 40 L 113 39 L 118 47 Q 117 49 120 48 L 124 54 Q 126 53 125 56 L 139 56 L 139 56 L 139 13 L 138 11 L 126 11 L 123 14 L 123 28 Q 120 29 121 26 L 116 22 L 114 17 L 109 11 L 97 11 Z M 145 11 L 142 14 L 142 55 L 144 56 L 177 56 L 182 53 L 187 47 L 187 45 L 189 45 L 189 39 Q 192 40 191 37 L 194 37 L 193 42 L 187 52 Q 186 56 188 56 L 203 56 Q 206 52 207 44 L 207 48 L 209 49 L 222 49 Q 221 52 224 54 L 225 56 L 279 56 L 278 37 L 277 35 L 272 35 Q 270 38 267 37 Q 266 34 269 35 L 279 21 L 279 12 L 279 11 L 238 11 L 238 23 L 257 23 L 256 25 L 236 25 Q 237 22 234 23 L 234 20 L 232 20 L 232 16 L 230 16 Q 226 17 227 22 L 222 13 L 221 11 L 208 11 L 203 19 L 203 22 Q 200 21 201 24 L 199 23 L 199 20 L 194 20 L 193 27 L 191 28 L 186 20 L 184 17 Q 180 12 174 11 L 145 11 Z M 283 11 L 282 15 L 282 39 L 281 40 Q 280 44 282 46 Q 284 51 281 53 L 282 55 L 283 56 L 296 56 L 296 12 L 296 11 L 283 11 Z " /><path fill="rgb(0,0,0)" stroke="rgb(0,0,0)" stroke-width="1" opacity="0" d="M 159 23 L 165.5 23 L 172 26 L 174 30 Q 168.5 28.8 167 32.5 L 168 39 L 173 39.5 Q 169.3 45.6 159 44 L 159 23 Z " /><path fill="rgb(0,0,0)" stroke="rgb(0,0,0)" stroke-width="1" opacity="0" d="M 231 31 L 233.5 32 L 250 32 Q 251.1 34.7 248.5 34 L 245 39 L 243 39 L 243 41 Q 240.3 39.9 241 42.5 L 236 46 Q 237.3 40.7 234 41.5 L 234 38.5 Q 230.5 36.3 231 31 Z " /><path fill="rgb(0,0,0)" stroke="rgb(0,0,0)" stroke-width="1" opacity="0" d="M 212 32 Q 214.7 30.9 214 33.5 L 214.5 35 Q 210.3 36.1 212 32 Z " /><path fill="rgb(63,103,158)" stroke="rgb(63,103,158)" stroke-width="1" opacity="0.0784313725490196" d="M 4.5 11 L 17.5 11 L 19 12.5 L 22 22 Q 25.3 20.7 24 25.5 L 27 34 Q 30 35.3 29 31.5 L 31 29.5 L 33 22 Q 36.3 23.3 35 18.5 L 39.5 11 L 52.5 11 L 53.5 12 L 54.5 11 L 90.5 11 L 92 12.5 L 92 21.5 Q 91 24 86.5 23 L 86.5 22 L 90 20.5 Q 91.8 13.8 88.5 12 L 55.5 12 L 55 13.5 L 54 14.5 L 54 46.5 L 55 49.5 L 54 51.5 L 56 55.5 L 53 56 L 52 53.5 L 51.5 20 Q 49 21.2 50 25 Q 46.7 23.7 48 28.5 L 43 38.5 L 43 42 Q 40 40.8 41 44.5 L 40 49 Q 36.7 47.7 38 52.5 L 36 56 L 33 55.5 L 36 52.5 L 39 43.5 L 41 41.5 L 48 22.5 L 52 15.5 L 52 12 L 40.5 12 L 40 13.5 L 38 15.5 L 28.5 38 Q 25.9 38.8 27 35.5 L 17 12 L 4.5 12 L 4.5 11 Z " /><path fill="rgb(63,103,158)" stroke="rgb(63,103,158)" stroke-width="1" opacity="0.0784313725490196" d="M 96.5 11 L 108.5 11 L 111 14.5 L 114 16 L 116 22 L 119 23.5 L 121 28 Q 123.7 26.9 123 29.5 L 125 30.5 L 125 11 L 137.5 11 L 139 12.5 L 139 56 L 135 55.5 L 138 53.5 L 138 13.5 L 136.5 12 L 126 12 L 126 32.5 L 124 33.5 L 108.5 13 Q 105.3 10.7 98.5 12 L 97 13.5 L 97 54.5 L 97.5 56 L 95 54.5 L 95 12.5 L 96.5 11 Z " /><path fill="rgb(63,103,158)" stroke="rgb(63,103,158)" stroke-width="1" opacity="0.0784313725490196" d="M 144.5 11 L 172.5 11 L 175 12.5 L 173.5 13 L 172.5 12 L 146.5 12 L 145 13.5 L 145 53.5 L 146.5 56 Q 141.7 57.7 143 53.5 L 142 52.5 L 142 14.5 L 144.5 11 Z " /><path fill="rgb(63,103,158)" stroke="rgb(63,103,158)" stroke-width="1" opacity="0.0784313725490196" d="M 207 11 L 212 11.5 L 207 13.5 L 205.5 16 L 205 14.5 L 207 11 Z " /><path fill="rgb(63,103,158)" stroke="rgb(63,103,158)" stroke-width="1" opacity="0.0784313725490196" d="M 214.5 11 L 217 11.5 L 214.5 12 L 214.5 11 Z " /><path fill="rgb(63,103,158)" stroke="rgb(63,103,158)" stroke-width="1" opacity="0.0784313725490196" d="M 176.5 12 L 178.5 15 L 176 13.5 L 176.5 12 Z " /><path fill="rgb(63,103,158)" stroke="rgb(63,103,158)" stroke-width="1" opacity="0.0784313725490196" d="M 4.5 15 L 14 38.5 L 22.5 55 L 24 55.5 L 21 56 Q 22 53 19 54 L 19 51.5 L 10 33.5 L 9 28.5 L 5 22.5 L 4.5 15 Z " /><path fill="rgb(63,103,158)" stroke="rgb(63,103,158)" stroke-width="1" opacity="0.0784313725490196" d="M 180.5 15 L 184 16.5 L 181.5 17 L 180.5 15 Z " /><path fill="rgb(63,103,158)" stroke="rgb(63,103,158)" stroke-width="1" opacity="0.0784313725490196" d="M 183.5 18 L 187 20.5 L 187 23 Q 190 21.8 189 25.5 L 187 24.5 L 183.5 18 Z " /><path fill="rgb(63,103,158)" stroke="rgb(63,103,158)" stroke-width="1" opacity="0.0784313725490196" d="M 196.5 20 L 199 20.5 L 198.5 23 L 195 22 Q 196.1 24.7 193.5 24 L 196.5 20 Z " /><path fill="rgb(63,103,158)" stroke="rgb(63,103,158)" stroke-width="1" opacity="0.0784313725490196" d="M 158.5 22 L 167.5 22 L 168 23.5 L 169.5 23 L 175 26.5 L 176 30.5 L 174 29.5 L 171.5 26 L 166.5 23 L 159 23 L 159 44 L 167.5 44 L 173 39.5 Q 168.3 39.7 167 36.5 Q 164.9 30.6 169.5 32 L 169 33.5 Q 168.3 37.3 170.5 38 L 174.5 37 Q 177.3 38.3 175 39.5 L 173.5 42 L 170.5 44 L 169.5 45 L 158.5 45 L 157 43.5 L 157 23.5 L 158.5 22 Z " /><path fill="rgb(63,103,158)" stroke="rgb(63,103,158)" stroke-width="1" opacity="0.0784313725490196" d="M 202.5 22 L 201 24.5 L 200.5 26 L 199.5 24 L 202.5 22 Z " /><path fill="rgb(63,103,158)" stroke="rgb(63,103,158)" stroke-width="1" opacity="0.0784313725490196" d="M 67 23 Q 70.3 21.7 69 26.5 Q 70.5 29.5 76.5 28 L 78.5 28 Q 86.7 26.9 90 29 L 90 37.5 L 88.5 39 L 69.5 39 L 69 44 L 91.5 44 L 92 45.5 L 93 46.5 L 93 56 L 89 55.5 L 91 53.5 L 91 46 L 88.5 45 L 68.5 45 L 67 43.5 Q 65.1 38.1 68.5 39 L 69.5 38 L 86.5 38 L 88 36.5 Q 89.5 30.5 86.5 29 L 67.5 29 L 67 28.5 L 67 23 Z " /><path fill="rgb(63,103,158)" stroke="rgb(63,103,158)" stroke-width="1" opacity="0.0784313725490196" d="M 191 27 L 193 27.5 Q 188.7 29.7 190.5 32 Q 187.5 32.7 189 29 Q 192 30 191 27 Z " /><path fill="rgb(63,103,158)" stroke="rgb(63,103,158)" stroke-width="1" opacity="0.0784313725490196" d="M 213.5 31 L 214.5 33 L 213.5 31 Z " /><path fill="rgb(63,103,158)" stroke="rgb(63,103,158)" stroke-width="1" opacity="0.0784313725490196" d="M 109 35 L 115 39.5 L 127.5 55 L 130 55.5 L 125 56 L 125 54 Q 122.3 55.1 123 52.5 L 120 48 Q 117.3 49.1 118 46.5 Q 115.3 45.4 116 42 L 113 40.5 Q 113.7 37.9 111 39 L 111 55.5 Q 111 56.5 106.5 56 L 106.5 55 L 109 53.5 L 109 35 Z " /><path fill="rgb(63,103,158)" stroke="rgb(63,103,158)" stroke-width="1" opacity="0.0784313725490196" d="M 195.5 35 L 196 37.5 L 190.5 49 L 190 46.5 L 191 43 Q 194.3 44.3 193 39.5 L 194 37.5 L 193.5 36 L 195 36.5 L 195.5 35 Z " /><path fill="rgb(63,103,158)" stroke="rgb(63,103,158)" stroke-width="1" opacity="0.0784313725490196" d="M 212.5 35 L 215 36.5 L 209.5 38 L 210.5 36 L 212.5 35 Z " /><path fill="rgb(63,103,158)" stroke="rgb(63,103,158)" stroke-width="1" opacity="0.0784313725490196" d="M 190.5 37 L 188.5 40 L 190.5 37 Z " /><path fill="rgb(63,103,158)" stroke="rgb(63,103,158)" stroke-width="1" opacity="0.0784313725490196" d="M 188.5 41 L 189 43.5 L 188 43.5 L 188.5 41 Z " /><path fill="rgb(63,103,158)" stroke="rgb(63,103,158)" stroke-width="1" opacity="0.0784313725490196" d="M 186.5 45 L 187 46.5 L 186 49 L 182 51.5 Q 182.8 53.8 180.5 53 L 174.5 56 L 172.5 56 L 167 55.5 Q 181.6 55.1 186.5 45 Z " /><path fill="rgb(63,103,158)" stroke="rgb(63,103,158)" stroke-width="1" opacity="0.0784313725490196" d="M 189.5 50 L 190 51.5 L 188 54.5 L 188.5 56 Q 185.8 54.8 188 53.5 L 189.5 50 Z " /><path fill="rgb(63,103,158)" stroke="rgb(63,103,158)" stroke-width="1" opacity="0.0784313725490196" d="M 203.5 50 L 205 52.5 L 203 56 L 200 55.5 L 203.5 50 Z " /><path fill="rgb(63,103,158)" stroke="rgb(63,103,158)" stroke-width="1" opacity="0.0784313725490196" d="M 224.5 54 L 225.5 56 L 224.5 54 Z " /><path fill="rgb(41,163,213)" stroke="rgb(41,163,213)" stroke-width="1" opacity="0.5882352941176471" d="M 209.5 12 Q 219 10 221 15.5 L 225 27 Q 229.9 28.8 228 22.5 L 230.5 19 L 234.5 26 L 257.5 26 L 258 27.5 L 255 33 Q 252.3 31.9 253 34.5 L 244 44.5 Q 240.4 46.4 241 52.5 L 242.5 54 L 277 54 Q 278.5 48.6 275.5 47 L 255.5 47 L 255 43.5 L 261 38.5 L 276 19.5 L 276 14 L 242.5 14 L 242 14.5 L 242 20 L 260.5 20 L 262 21.5 Q 262.5 25.5 259.5 26 L 259 24.5 L 260 22 L 242.5 22 L 240 19.5 Q 238.5 13.5 241.5 12 L 276.5 12 L 277 13.5 L 277 15.5 L 277 20.5 L 263 36.5 L 263 39 L 275.5 38 L 277 40.5 Q 276.5 43.5 272.5 43 L 268.5 41 L 266.5 42 Q 265 39.5 259.5 41 L 257 44.5 L 258.5 46 L 278 46 L 279 52.5 L 278 55 L 240.5 55 L 240 54.5 L 240 47.5 L 255 29.5 L 253.5 28 L 233.5 28 L 230.5 25 L 229 29 Q 225.2 30 224 27.5 L 219 14 L 210.5 14 L 209.5 13 L 208 13.5 L 209.5 12 Z M 273 39 L 272 41 L 276 41 L 273 39 Z " /><path fill="rgb(41,163,213)" stroke="rgb(41,163,213)" stroke-width="1" opacity="0.5882352941176471" d="M 285 12 L 294.5 12 L 296 13.5 L 296 53.5 L 294.5 55 L 285.5 55 L 284 53.5 L 284 14.5 L 285 12 Z M 286 14 L 286 54 L 287 54 L 294 54 L 294 15 L 294 14 L 286 14 Z " /><path fill="rgb(41,163,213)" stroke="rgb(41,163,213)" stroke-width="1" opacity="0.5882352941176471" d="M 205.5 19 L 206 20.5 L 204.5 23 L 204 21.5 L 205.5 19 Z " /><path fill="rgb(41,163,213)" stroke="rgb(41,163,213)" stroke-width="1" opacity="0.5882352941176471" d="M 195 24 L 198 25.5 L 199.5 31 L 201.5 28 L 201 29.5 L 199 37 L 197 36.5 L 198 32.5 L 195.5 29 L 192.5 36 L 190.5 35 L 188 36.5 L 188 34.5 L 188.5 33 L 192 34 L 194 30.5 L 195 24 Z " /><path fill="rgb(41,163,213)" stroke="rgb(41,163,213)" stroke-width="1" opacity="0.5882352941176471" d="M 212.5 25 L 216 26.5 L 219 38 L 217 37.5 L 218 35.5 L 213.5 26 L 209.5 33 L 209 31.5 L 212.5 25 Z " /><path fill="rgb(41,163,213)" stroke="rgb(41,163,213)" stroke-width="1" opacity="0.5882352941176471" d="M 177.5 31 L 178 35 L 175 34.5 L 177 34 L 177.5 31 Z " /><path fill="rgb(41,163,213)" stroke="rgb(41,163,213)" stroke-width="1" opacity="0.5882352941176471" d="M 228.5 33 L 237 50.5 L 237 55 L 227.5 55 L 225 52.5 Q 224.8 47.8 221.5 46 L 210.5 46 L 209 44.5 L 210.5 41 L 211 42.5 L 210 45 L 222.5 45 L 225 47.5 L 227 54 L 234.5 54 L 236 52.5 L 229 37.5 L 228.5 33 Z " /><path fill="rgb(41,163,213)" stroke="rgb(41,163,213)" stroke-width="1" opacity="0.5882352941176471" d="M 208.5 35 L 208 36.5 L 207.5 38 L 207 36.5 L 208.5 35 Z " /><path fill="rgb(41,163,213)" stroke="rgb(41,163,213)" stroke-width="1" opacity="0.5882352941176471" d="M 205.5 40 L 206 42.5 L 203.5 48 L 203 45.5 L 205.5 40 Z " /><path fill="rgb(41,163,213)" stroke="rgb(41,163,213)" stroke-width="1" opacity="0.5882352941176471" d="M 200.5 53 L 199.5 55 L 198 54.5 L 200.5 53 Z " /><path fill="rgb(44,63,143)" stroke="rgb(44,63,143)" stroke-width="1" opacity="0.9725490196078431" d="M 45 14 Q 48.8 13 50 15.5 Q 50.9 18.5 46.5 17 L 45 14 Z " /><path fill="rgb(44,63,143)" stroke="rgb(44,63,143)" stroke-width="1" opacity="0.9725490196078431" d="M 57.5 14 L 74.5 14 L 77 16.5 L 67.5 20 L 65 22.5 Q 63.5 28.5 66.5 30 L 84.5 30 L 86 31.5 Q 87 36 84.5 37 L 73.5 36 Q 72.3 38.3 67.5 37 L 65 39.5 Q 63.8 45.8 67.5 47 Q 78.7 45.3 84.5 49 Q 85.6 46.3 89 47 Q 90.3 51.6 87.5 53 L 57 54 L 56 50.5 L 56 33.5 L 57 28.5 L 56 27.5 L 56 15.5 L 57.5 14 Z " /><path fill="rgb(44,63,143)" stroke="rgb(44,63,143)" stroke-width="1" opacity="0.9725490196078431" d="M 42 25 Q 45 24 44 27 Q 41 28 42 25 Z " /><path fill="rgb(44,63,143)" stroke="rgb(44,63,143)" stroke-width="1" opacity="0.9725490196078431" d="M 24.5 52 L 27 52.5 L 24.5 53 L 24.5 52 Z " /><path fill="rgb(41,91,159)" stroke="rgb(41,91,159)" stroke-width="1" opacity="0.6705882352941176" d="M 99.5 12 L 104.5 12 L 111 17.5 L 124 35 L 127 33.5 L 127 13.5 L 128.5 12 Q 135.5 10.5 137 14.5 L 137 53.5 L 135.5 55 Q 127.2 56.3 125 51.5 L 109.5 33 L 108 33.5 L 108 53.5 L 106.5 54 Q 105 56.5 99.5 55 L 98.5 53 Q 100 55.5 105.5 54 L 107 52.5 L 107 31 Q 110.8 30.3 112 33.5 L 117 41 Q 119.7 39.9 119 42.5 L 128.5 53 L 135.5 53 L 136 52.5 L 136 14 L 128 14 L 128 35.5 L 125.5 37 L 106.5 14 L 98 13.5 L 99.5 12 Z " /><path fill="rgb(41,91,159)" stroke="rgb(41,91,159)" stroke-width="1" opacity="0.6705882352941176" d="M 147.5 12 L 166.5 12 L 172 13.5 L 147 14 L 147 54 L 168.5 54 L 175.5 52 L 175.5 53 L 168.5 55 L 147.5 55 L 146 53.5 L 146 13.5 L 147.5 12 Z " /><path fill="rgb(41,91,159)" stroke="rgb(41,91,159)" stroke-width="1" opacity="0.6705882352941176" d="M 41.5 13 L 43 13.5 L 41 14 L 39.5 18 L 39 16.5 L 41.5 13 Z " /><path fill="rgb(41,91,159)" stroke="rgb(41,91,159)" stroke-width="1" opacity="0.6705882352941176" d="M 60.5 13 L 89 13.5 L 60.5 14 L 60.5 13 Z " /><path fill="rgb(41,91,159)" stroke="rgb(41,91,159)" stroke-width="1" opacity="0.6705882352941176" d="M 209.5 13 L 208.5 15 L 209.5 13 Z " /><path fill="rgb(41,91,159)" stroke="rgb(41,91,159)" stroke-width="1" opacity="0.6705882352941176" d="M 174.5 14 Q 181.3 16.3 185 21.5 L 188 29.5 L 187 29.5 Q 186.4 21.1 180.5 18 L 175.5 16 L 174.5 14 Z " /><path fill="rgb(41,91,159)" stroke="rgb(41,91,159)" stroke-width="1" opacity="0.6705882352941176" d="M 88.5 19 L 89 21 L 67.5 21 L 66 22.5 Q 62.8 32.3 72.5 29 L 72.5 30 Q 66.5 31.5 65 28.5 Q 63.5 21.5 67.5 20 L 87.5 20 L 88.5 19 Z " /><path fill="rgb(41,91,159)" stroke="rgb(41,91,159)" stroke-width="1" opacity="0.6705882352941176" d="M 158.5 20 Q 166.2 18.8 170 21.5 L 166.5 22 Q 164.7 19.3 158.5 21 L 156 23.5 L 156 43.5 L 157 46 L 168.5 46 L 176 40.5 L 177.5 37 L 178 38.5 L 175 44 Q 169.9 48.6 157.5 47 L 155 44.5 L 155 23.5 L 156 21 L 158.5 20 Z " /><path fill="rgb(41,91,159)" stroke="rgb(41,91,159)" stroke-width="1" opacity="0.6705882352941176" d="M 171.5 22 L 177 26.5 L 178 30.5 L 177 30.5 Q 176.8 25.8 173.5 24 L 171.5 22 Z " /><path fill="rgb(41,91,159)" stroke="rgb(41,91,159)" stroke-width="1" opacity="0.6705882352941176" d="M 11.5 27 L 13 30.5 L 12 30.5 L 11.5 27 Z " /><path fill="rgb(41,91,159)" stroke="rgb(41,91,159)" stroke-width="1" opacity="0.6705882352941176" d="M 170.5 33 L 171 36 L 174 36.5 L 171.5 37 Q 169 36 170.5 33 Z " /><path fill="rgb(41,91,159)" stroke="rgb(41,91,159)" stroke-width="1" opacity="0.6705882352941176" d="M 173.5 33 L 175.5 36 L 173.5 33 Z " /><path fill="rgb(41,91,159)" stroke="rgb(41,91,159)" stroke-width="1" opacity="0.6705882352941176" d="M 85.5 36 L 84.5 38 L 67 37.5 L 84.5 37 L 85.5 36 Z " /><path fill="rgb(41,91,159)" stroke="rgb(41,91,159)" stroke-width="1" opacity="0.6705882352941176" d="M 187.5 37 L 188 39.5 L 186.5 42 L 186 40.5 L 187.5 37 Z " /><path fill="rgb(41,91,159)" stroke="rgb(41,91,159)" stroke-width="1" opacity="0.6705882352941176" d="M 197.5 37 L 198 38.5 L 193.5 48 L 193 46.5 L 197.5 37 Z " /><path fill="rgb(41,91,159)" stroke="rgb(41,91,159)" stroke-width="1" opacity="0.6705882352941176" d="M 65.5 39 Q 64.6 44.4 67.5 46 L 69 46.5 L 67.5 47 Q 63.3 45.3 65.5 39 Z " /><path fill="rgb(41,91,159)" stroke="rgb(41,91,159)" stroke-width="1" opacity="0.6705882352941176" d="M 185.5 43 L 186 44.5 L 177.5 52 L 178.5 50 L 185 44.5 L 185.5 43 Z " /><path fill="rgb(41,91,159)" stroke="rgb(41,91,159)" stroke-width="1" opacity="0.6705882352941176" d="M 89.5 47 L 90 53.5 L 88.5 55 L 57.5 55 L 56.5 53 L 57.5 54 L 89 54 L 89.5 47 Z " /><path fill="rgb(41,91,159)" stroke="rgb(41,91,159)" stroke-width="1" opacity="0.6705882352941176" d="M 202.5 47 L 203 49.5 L 200.5 53 L 201 51.5 L 202.5 47 Z " /><path fill="rgb(41,91,159)" stroke="rgb(41,91,159)" stroke-width="1" opacity="0.6705882352941176" d="M 192.5 49 L 192 50.5 Q 190.2 56.6 197.5 54 L 197.5 55 Q 190.5 56.5 191 53.5 L 191 51.5 L 192.5 49 Z " /><path fill="rgb(41,91,159)" stroke="rgb(41,91,159)" stroke-width="1" opacity="0.6705882352941176" d="M 24.5 54 L 32 54.5 L 24.5 55 L 24.5 54 Z " /><path fill="rgb(50,167,217)" stroke="rgb(50,167,217)" stroke-width="1" opacity="0.9725490196078431" d="M 210 14 L 217 14 L 217 17.5 L 218 22 Q 221 20.8 220 24.5 L 223.5 34 L 225 29 Q 230.3 27.2 228 34.5 L 236 52.5 L 234.5 54 L 227 54 L 226 50.5 L 228 46 L 224.5 47 L 221 45 L 219 39.5 L 218 31.5 L 213.5 23 L 210 28.5 L 203 47 L 200 45.5 L 200 41.5 L 198 37.5 L 200.5 32 Q 203.1 31.3 202 34 L 205 34 L 205 30.5 L 207 28.5 L 207 24.5 L 210 18.5 L 210 14 Z " /><path fill="rgb(50,167,217)" stroke="rgb(50,167,217)" stroke-width="1" opacity="0.9725490196078431" d="M 242 14 L 275.5 14 Q 276.6 14.1 276 19.5 L 258.5 41 L 255 43.5 L 255.5 47 L 275.5 47 Q 278.5 48.6 277 54 L 242.5 54 L 241 52.5 L 242 47.5 L 253 33 Q 255.7 34.1 255 31.5 L 262 23.5 L 262 21.5 L 260.5 20 L 242 20 L 242 14 Z " /><path fill="rgb(50,167,217)" stroke="rgb(50,167,217)" stroke-width="1" opacity="0.9725490196078431" d="M 286 14 L 293.5 14 L 294 14.5 L 294 54 L 286.5 54 L 286 53.5 L 286 14 Z " /><path fill="rgb(50,167,217)" stroke="rgb(50,167,217)" stroke-width="1" opacity="0.9725490196078431" d="M 221.5 21 L 223 23.5 L 221 22.5 L 221.5 21 Z " /><path fill="rgb(50,167,217)" stroke="rgb(50,167,217)" stroke-width="1" opacity="0.9725490196078431" d="M 178.5 33 L 179.5 34 L 187.5 34 L 189 35.5 L 187.5 37 L 178.5 37 L 176 35.5 L 178 35 L 178.5 33 Z " /><path fill="rgb(50,167,217)" stroke="rgb(50,167,217)" stroke-width="1" opacity="0.9725490196078431" d="M 272.5 39 L 276 40.5 L 271.5 41 L 272.5 39 Z " /><path fill="rgb(132,237,251)" stroke="rgb(132,237,251)" stroke-width="1" opacity="0.01568627450980392" d="M 94.5 12 L 95 54.5 L 96 55.5 L 94 54.5 L 94.5 12 Z " /><path fill="rgb(132,237,251)" stroke="rgb(132,237,251)" stroke-width="1" opacity="0.01568627450980392" d="M 124.5 12 L 125 30.5 L 123 29.5 L 123 13.5 L 124.5 12 Z " /><path fill="rgb(132,237,251)" stroke="rgb(132,237,251)" stroke-width="1" opacity="0.01568627450980392" d="M 282.5 14 L 283 55.5 L 282 55.5 L 281 52.5 Q 283.5 51 282 45.5 Q 279.8 44.3 281 39.5 L 282 38.5 L 282.5 14 Z " /><path fill="rgb(132,237,251)" stroke="rgb(132,237,251)" stroke-width="1" opacity="0.01568627450980392" d="M 229.5 16 L 230 18 L 228 17.5 L 229.5 16 Z " /><path fill="rgb(132,237,251)" stroke="rgb(132,237,251)" stroke-width="1" opacity="0.01568627450980392" d="M 194.5 20 L 195 21.5 L 193 22.5 L 194.5 20 Z " /><path fill="rgb(132,237,251)" stroke="rgb(132,237,251)" stroke-width="1" opacity="0.01568627450980392" d="M 166.5 23 L 167.5 25 L 166.5 23 Z " /><path fill="rgb(132,237,251)" stroke="rgb(132,237,251)" stroke-width="1" opacity="0.01568627450980392" d="M 234.5 23 Q 236.8 22.3 236 24.5 L 234.5 23 Z " /><path fill="rgb(132,237,251)" stroke="rgb(132,237,251)" stroke-width="1" opacity="0.01568627450980392" d="M 119.5 24 L 120.5 26 L 119.5 24 Z " /><path fill="rgb(132,237,251)" stroke="rgb(132,237,251)" stroke-width="1" opacity="0.01568627450980392" d="M 81.5 27 Q 87.5 25.5 89 28.5 L 87.5 28 L 81.5 28 L 81.5 27 Z " /><path fill="rgb(132,237,251)" stroke="rgb(132,237,251)" stroke-width="1" opacity="0.01568627450980392" d="M 189.5 27 L 190.5 29 Q 187.7 29.7 189.5 27 Z " /><path fill="rgb(132,237,251)" stroke="rgb(132,237,251)" stroke-width="1" opacity="0.01568627450980392" d="M 169.5 30 L 170 32 L 168 31.5 L 169.5 30 Z " /><path fill="rgb(132,237,251)" stroke="rgb(132,237,251)" stroke-width="1" opacity="0.01568627450980392" d="M 213.5 30 L 212.5 32 L 213.5 30 Z " /><path fill="rgb(132,237,251)" stroke="rgb(132,237,251)" stroke-width="1" opacity="0.01568627450980392" d="M 229.5 30 L 231.5 30 L 240.5 31 L 241.5 30 L 249.5 30 L 251 32.5 L 249.5 32 L 233.5 32 L 231.5 31 L 228.5 33 L 228 31.5 L 229.5 30 Z " /><path fill="rgb(132,237,251)" stroke="rgb(132,237,251)" stroke-width="1" opacity="0.01568627450980392" d="M 248.5 34 L 246.5 37 L 248.5 34 Z " /><path fill="rgb(132,237,251)" stroke="rgb(132,237,251)" stroke-width="1" opacity="0.01568627450980392" d="M 271.5 35 L 270.5 37 L 271.5 35 Z " /><path fill="rgb(132,237,251)" stroke="rgb(132,237,251)" stroke-width="1" opacity="0.01568627450980392" d="M 273.5 35 Q 277.3 34.3 278 36.5 L 276.5 36 Q 272.5 36.8 273.5 35 Z " /><path fill="rgb(132,237,251)" stroke="rgb(132,237,251)" stroke-width="1" opacity="0.01568627450980392" d="M 232.5 37 L 233.5 39 L 232.5 37 Z " /><path fill="rgb(132,237,251)" stroke="rgb(132,237,251)" stroke-width="1" opacity="0.01568627450980392" d="M 259.5 41 L 261.5 42 L 271 42 L 270.5 44 L 260 44 L 259.5 41 Z " /><path fill="rgb(132,237,251)" stroke="rgb(132,237,251)" stroke-width="1" opacity="0.01568627450980392" d="M 240.5 43 L 240 44.5 L 238 47.5 L 237 47.5 L 240.5 43 Z " /><path fill="rgb(132,237,251)" stroke="rgb(132,237,251)" stroke-width="1" opacity="0.01568627450980392" d="M 207.5 47 Q 214.3 45.7 217.5 48 L 219.5 47 L 222 48.5 L 208.5 49 L 207.5 47 Z " /><path fill="rgb(132,237,251)" stroke="rgb(132,237,251)" stroke-width="1" opacity="0.01568627450980392" d="M 188.5 50 L 187.5 52 L 188.5 50 Z " /><path fill="rgb(132,237,251)" stroke="rgb(132,237,251)" stroke-width="1" opacity="0.01568627450980392" d="M 222.5 51 L 223.5 53 L 222.5 51 Z " /><path fill="rgb(49,54,139)" stroke="rgb(49,54,139)" stroke-width="1" opacity="0.9529411764705882" d="M 7.5 13 Q 13.6 12.2 16 14 L 27 40 Q 30.8 41.5 30 38.5 L 41 14 Q 43.1 12.4 48.5 13 L 51 14.5 L 49.5 15 L 45 14 L 46.5 17 Q 50.3 15.8 49 19.5 L 32.5 54 L 23.5 54 L 22 52.5 L 6 14.5 L 7.5 13 Z M 42 25 Q 41 28 44 27 Q 45 24 42 25 Z M 25 52 L 25 53 L 27 53 L 25 52 Z " /><path fill="rgb(49,54,139)" stroke="rgb(49,54,139)" stroke-width="1" opacity="0.9529411764705882" d="M 57.5 13 L 60 13.5 L 56.5 15 L 57.5 13 Z " /><path fill="rgb(49,54,139)" stroke="rgb(49,54,139)" stroke-width="1" opacity="0.9529411764705882" d="M 56.5 28 L 57 32.5 L 56 32.5 L 56.5 28 Z " /><path fill="rgb(49,83,152)" stroke="rgb(49,83,152)" stroke-width="1" opacity="0.3764705882352941" d="M 4 12 L 16.5 12 L 17 13.5 L 27 36.5 L 25 35.5 L 16 13 L 6 13 L 6 16.5 L 22 54 Q 24.7 55.9 31.5 55 L 34 54 L 51 13 L 41.5 13 L 40 14.5 Q 35.9 28.9 28.5 40 L 27.5 38 L 30 36.5 L 31 31.5 L 40 12 L 51.5 12 L 52 15.5 L 36 52.5 L 32.5 56 Q 23.8 57.7 21 53.5 L 9 24.5 L 7 22.5 L 4 12 Z " /><path fill="rgb(49,83,152)" stroke="rgb(49,83,152)" stroke-width="1" opacity="0.3764705882352941" d="M 55 12 L 88.5 12 L 90 13.5 Q 91.8 20.3 88.5 22 L 85.5 23 L 67 23 L 66.5 29 L 66 22.5 L 67.5 21 L 89 21 L 89 13.5 L 88.5 13 L 56 13 L 56 53.5 L 57.5 55 L 88.5 55 L 90 53.5 Q 90.8 47.3 89.5 47 L 69.5 47 L 66 44.5 L 66 38 L 68.5 38 L 68.5 39 Q 65.1 38.1 67 43.5 L 68.5 45 L 88.5 45 L 91 46 L 91 53.5 L 88.5 56 L 56.5 56 L 55 54.5 L 54 50.5 L 55 47.5 L 54 46.5 L 54 14.5 L 55 12 Z " /><path fill="rgb(49,83,152)" stroke="rgb(49,83,152)" stroke-width="1" opacity="0.3764705882352941" d="M 98.5 12 L 98 13.5 L 98 53.5 L 99.5 55 Q 105.6 55.8 108 54 L 108 33.5 L 109.5 33 L 114.5 39 L 109 35 L 109 53.5 L 107.5 55 L 98.5 56 L 97 54.5 L 97 13.5 L 98.5 12 Z " /><path fill="rgb(49,83,152)" stroke="rgb(49,83,152)" stroke-width="1" opacity="0.3764705882352941" d="M 105.5 12 L 110 14.5 L 124 32.5 L 120 29.5 L 106.5 13 L 105.5 12 Z " /><path fill="rgb(49,83,152)" stroke="rgb(49,83,152)" stroke-width="1" opacity="0.3764705882352941" d="M 126 12 L 128 12.5 L 127 13.5 L 127 33.5 L 125.5 35 L 124 34.5 L 126 32.5 L 126 12 Z " /><path fill="rgb(49,83,152)" stroke="rgb(49,83,152)" stroke-width="1" opacity="0.3764705882352941" d="M 135.5 12 L 138 13.5 L 138 53.5 L 136.5 55 L 137 53.5 L 137 14.5 L 135.5 12 Z " /><path fill="rgb(49,83,152)" stroke="rgb(49,83,152)" stroke-width="1" opacity="0.3764705882352941" d="M 146.5 12 L 146 13.5 L 146 53.5 L 147.5 55 L 167 55.5 L 147.5 56 L 145 53.5 L 145 13.5 L 146.5 12 Z " /><path fill="rgb(49,83,152)" stroke="rgb(49,83,152)" stroke-width="1" opacity="0.3764705882352941" d="M 167.5 12 L 170 12.5 L 167.5 13 L 167.5 12 Z " /><path fill="rgb(49,83,152)" stroke="rgb(49,83,152)" stroke-width="1" opacity="0.3764705882352941" d="M 172.5 13 L 176 14.5 L 174.5 14 Q 171.5 14.5 172.5 13 Z " /><path fill="rgb(49,83,152)" stroke="rgb(49,83,152)" stroke-width="1" opacity="0.3764705882352941" d="M 178.5 15 L 179.5 17 L 178.5 15 Z " /><path fill="rgb(49,83,152)" stroke="rgb(49,83,152)" stroke-width="1" opacity="0.3764705882352941" d="M 181.5 17 L 184.5 21 L 181.5 17 Z " /><path fill="rgb(49,83,152)" stroke="rgb(49,83,152)" stroke-width="1" opacity="0.3764705882352941" d="M 158.5 21 L 166 21.5 L 158.5 22 L 157 23.5 L 157 43.5 L 158.5 45 L 169 45.5 L 157 46 L 156 43.5 L 156 23.5 L 158.5 21 Z " /><path fill="rgb(49,83,152)" stroke="rgb(49,83,152)" stroke-width="1" opacity="0.3764705882352941" d="M 168.5 22 L 170.5 22 L 176 26.5 L 175.5 28 L 173.5 25 L 168.5 23 L 168.5 22 Z " /><path fill="rgb(49,83,152)" stroke="rgb(49,83,152)" stroke-width="1" opacity="0.3764705882352941" d="M 185.5 22 L 186.5 24 L 185.5 22 Z " /><path fill="rgb(49,83,152)" stroke="rgb(49,83,152)" stroke-width="1" opacity="0.3764705882352941" d="M 196.5 23 L 197.5 25 L 196.5 23 Z " /><path fill="rgb(49,83,152)" stroke="rgb(49,83,152)" stroke-width="1" opacity="0.3764705882352941" d="M 73.5 29 L 86.5 29 L 88 30.5 Q 89.5 36.5 86.5 38 L 85 37.5 L 86 36.5 L 86 30 L 73.5 30 L 73.5 29 Z " /><path fill="rgb(49,83,152)" stroke="rgb(49,83,152)" stroke-width="1" opacity="0.3764705882352941" d="M 188.5 29 L 189 32.5 L 188 32.5 L 188.5 29 Z " /><path fill="rgb(49,83,152)" stroke="rgb(49,83,152)" stroke-width="1" opacity="0.3764705882352941" d="M 171.5 32 L 175 33.5 L 173.5 33 Q 170.5 33.5 171.5 32 Z " /><path fill="rgb(49,83,152)" stroke="rgb(49,83,152)" stroke-width="1" opacity="0.3764705882352941" d="M 169.5 33 L 171.5 37 L 175.5 36 L 176.5 38 L 174.5 37 L 170.5 38 Q 167.8 36.8 169.5 33 Z " /><path fill="rgb(49,83,152)" stroke="rgb(49,83,152)" stroke-width="1" opacity="0.3764705882352941" d="M 196.5 37 L 197 38.5 L 195.5 41 L 195 39.5 L 196.5 37 Z " /><path fill="rgb(49,83,152)" stroke="rgb(49,83,152)" stroke-width="1" opacity="0.3764705882352941" d="M 175.5 39 L 176 40.5 L 170.5 45 L 170.5 44 L 175 40.5 L 175.5 39 Z " /><path fill="rgb(49,83,152)" stroke="rgb(49,83,152)" stroke-width="1" opacity="0.3764705882352941" d="M 115.5 40 L 127.5 54 L 129 54.5 L 127.5 55 L 115.5 40 Z " /><path fill="rgb(49,83,152)" stroke="rgb(49,83,152)" stroke-width="1" opacity="0.3764705882352941" d="M 194.5 42 L 194 43.5 L 191.5 50 L 191 48.5 L 194.5 42 Z " /><path fill="rgb(49,83,152)" stroke="rgb(49,83,152)" stroke-width="1" opacity="0.3764705882352941" d="M 184.5 46 L 179.5 52 L 174.5 54 L 174.5 53 Q 181.3 51.3 184.5 46 Z " /><path fill="rgb(49,83,152)" stroke="rgb(49,83,152)" stroke-width="1" opacity="0.3764705882352941" d="M 202.5 50 L 203 51.5 L 200.5 55 L 201 53.5 L 202.5 50 Z " /><path fill="rgb(49,83,152)" stroke="rgb(49,83,152)" stroke-width="1" opacity="0.3764705882352941" d="M 130.5 55 L 135 55.5 L 130.5 56 L 130.5 55 Z " /><path fill="rgb(29,103,170)" stroke="rgb(29,103,170)" stroke-width="1" opacity="0.9764705882352941" d="M 128 14 L 135.5 14 L 136 14.5 L 136 46.5 L 136 48.5 Q 136.8 52.3 134.5 53 Q 130.8 53.8 130 51.5 Q 129.2 48.9 132.5 50 L 131.5 48 L 129.5 49 L 127.5 49 L 123 45.5 L 129 36.5 L 129 33.5 L 128 32.5 L 128 14 Z " /><path fill="rgb(29,103,170)" stroke="rgb(29,103,170)" stroke-width="1" opacity="0.9764705882352941" d="M 147 14 L 173.5 14 L 184 21.5 L 188 30.5 L 188 34 L 179.5 34 L 178 32.5 Q 178.1 24.4 172.5 22 Q 167.5 19 158.5 20 L 156 21 L 155 23.5 L 155 44.5 L 157.5 47 L 168.5 47 L 175 44 L 178 37 L 186.5 37 L 187 39.5 Q 185.2 46.7 179.5 50 L 168.5 54 L 147 54 L 147 14 Z " /><path fill="rgb(29,103,170)" stroke="rgb(29,103,170)" stroke-width="1" opacity="0.9764705882352941" d="M 209.5 14 L 210 18.5 L 207 24.5 L 207 28.5 L 205 30.5 L 205 34 Q 201.2 35.5 202 32.5 L 201 30.5 L 209.5 14 Z " /><path fill="rgb(29,103,170)" stroke="rgb(29,103,170)" stroke-width="1" opacity="0.9764705882352941" d="M 217 14 Q 220 12.8 219 16.5 L 221 18.5 L 221 22.5 Q 225 24.5 225 30.5 L 223.5 34 L 220 22 Q 216.7 23.3 218 18.5 L 217 14 Z " /><path fill="rgb(29,103,170)" stroke="rgb(29,103,170)" stroke-width="1" opacity="0.9764705882352941" d="M 171 33 L 175 35.5 L 171 36 L 171 33 Z " /><path fill="rgb(29,103,170)" stroke="rgb(29,103,170)" stroke-width="1" opacity="0.9764705882352941" d="M 213.5 38 Q 219.6 36.8 219 39.5 L 221 45 L 211 45 L 211 40.5 L 213.5 38 Z " /><path fill="rgb(29,103,170)" stroke="rgb(29,103,170)" stroke-width="1" opacity="0.9764705882352941" d="M 197.5 39 L 200 41.5 L 200 45.5 L 202 49.5 L 200 54 L 192 54 L 192 50.5 L 197.5 39 Z " /><path fill="rgb(29,103,170)" stroke="rgb(29,103,170)" stroke-width="1" opacity="0.9764705882352941" d="M 226.5 46 Q 228.8 45.3 228 47.5 L 227 50 Q 224 51.3 225 47.5 L 226.5 46 Z " /><path fill="rgb(49,164,212)" stroke="rgb(49,164,212)" stroke-width="1" opacity="0.16470588235294117" d="M 217.5 11 L 222 12 L 226.5 23 L 228 18 L 231.5 16 L 232 20 Q 235.3 18.7 234 23.5 L 235.5 25 L 257 25 L 256.5 23 L 239.5 23 L 238 21.5 L 238 12 L 240.5 11 L 277.5 11 L 279 12.5 L 279 20.5 L 274 28 Q 271.3 26.9 272 29.5 L 271 32 L 269 32 L 269 34 Q 266.3 32.9 267 35.5 L 266.5 37 Q 271.5 38 272.5 35 L 278 37.5 Q 279.3 42.2 277 43.5 L 279 44 L 278.5 49 L 278 46 L 258.5 46 L 257 44.5 L 258.5 42 L 260 42 L 260.5 44 L 271 44 Q 272.3 41 268.5 42 L 268.5 41 L 274.5 43 L 277 39.5 Q 276.3 37.3 272.5 38 L 271.5 39 L 263 39 L 263 36.5 L 277 20.5 Q 275.7 15.8 278 14.5 L 277 12 L 241.5 12 L 240 13.5 Q 238.5 20.5 242.5 22 L 259.5 22 L 260 23.5 L 257.5 26 L 234.5 26 L 230.5 19 Q 227 21.3 228 27 Q 223.9 28.7 225 24.5 L 221 15.5 L 217.5 11 Z " /><path fill="rgb(49,164,212)" stroke="rgb(49,164,212)" stroke-width="1" opacity="0.16470588235294117" d="M 284.5 11 L 295.5 11 L 296 12.5 L 294.5 12 L 285.5 12 L 285 13.5 L 284 14.5 L 284 53.5 L 285.5 55 L 294.5 55 L 296 54.5 L 295.5 56 L 283 56 L 283 12.5 L 284.5 11 Z " /><path fill="rgb(49,164,212)" stroke="rgb(49,164,212)" stroke-width="1" opacity="0.16470588235294117" d="M 170.5 12 L 173 12.5 L 170.5 13 L 170.5 12 Z " /><path fill="rgb(49,164,212)" stroke="rgb(49,164,212)" stroke-width="1" opacity="0.16470588235294117" d="M 206.5 12 L 209 12.5 Q 206.9 15.8 206.5 12 Z " /><path fill="rgb(49,164,212)" stroke="rgb(49,164,212)" stroke-width="1" opacity="0.16470588235294117" d="M 175.5 13 L 176.5 15 L 175.5 13 Z " /><path fill="rgb(49,164,212)" stroke="rgb(49,164,212)" stroke-width="1" opacity="0.16470588235294117" d="M 178.5 13 Q 181.1 12.2 180 15.5 L 180.5 17 L 178.5 13 Z " /><path fill="rgb(49,164,212)" stroke="rgb(49,164,212)" stroke-width="1" opacity="0.16470588235294117" d="M 206.5 15 L 207 16.5 L 199.5 31 L 196.5 23 L 194 26.5 L 192 34 Q 187.9 35.3 189 32 L 191 31.5 L 190 30.5 L 193 27.5 L 193 24 Q 196 25 195 22 L 197.5 22 L 200.5 26 L 206.5 15 Z " /><path fill="rgb(49,164,212)" stroke="rgb(49,164,212)" stroke-width="1" opacity="0.16470588235294117" d="M 187.5 25 L 189 28.5 L 188 28.5 L 187.5 25 Z " /><path fill="rgb(49,164,212)" stroke="rgb(49,164,212)" stroke-width="1" opacity="0.16470588235294117" d="M 230.5 25 L 233.5 28 L 253.5 28 L 255 29.5 L 240 47.5 L 240 55 L 277.5 55 L 278 53.5 L 279 53.5 L 278.5 56 L 226.5 56 L 222 50.5 L 222 48 L 218.5 47 L 216.5 48 Q 214.7 45.3 208.5 47 L 207 45.5 L 207.5 44 L 205 45.5 L 206 47.5 L 204 48 L 213.5 26 L 218 36.5 L 214.5 38 L 214.5 36 L 213 35.5 L 216 34.5 L 213.5 30 L 209 37.5 L 210.5 38 L 212.5 37 L 212.5 38 Q 210.3 37.3 211 39.5 L 209 44.5 L 210.5 46 L 221.5 46 L 224 48.5 Q 224.3 53.3 227.5 55 L 237 55 L 237 50.5 L 229 32.5 L 231 33.5 L 232 39 Q 235 37.8 234 41.5 L 237.5 48 L 238 46 Q 240.7 47.1 240 44.5 L 243 39 L 245 39 Q 243.9 36.3 246.5 37 L 251 31.5 L 249.5 30 L 241.5 30 L 239.5 31 L 238.5 30 L 229.5 30 L 228 30.5 L 230.5 25 Z " /><path fill="rgb(49,164,212)" stroke="rgb(49,164,212)" stroke-width="1" opacity="0.16470588235294117" d="M 70.5 27 L 77 27.5 L 70.5 28 L 70.5 27 Z " /><path fill="rgb(49,164,212)" stroke="rgb(49,164,212)" stroke-width="1" opacity="0.16470588235294117" d="M 78.5 27 L 81 27.5 L 78.5 28 L 78.5 27 Z " /><path fill="rgb(49,164,212)" stroke="rgb(49,164,212)" stroke-width="1" opacity="0.16470588235294117" d="M 171.5 30 L 177 31 Q 178.5 34.7 175.5 34 L 171.5 32 L 170 32.5 L 171.5 30 Z " /><path fill="rgb(49,164,212)" stroke="rgb(49,164,212)" stroke-width="1" opacity="0.16470588235294117" d="M 195 30 Q 197.7 28.9 197 31.5 L 198 35.5 L 196 36.5 Q 196.8 34.3 194.5 35 L 191.5 37 L 191.5 36 Q 194.1 36.8 193 33.5 L 195 30 Z " /><path fill="rgb(49,164,212)" stroke="rgb(49,164,212)" stroke-width="1" opacity="0.16470588235294117" d="M 188.5 40 L 188 41.5 Q 188.5 45.5 185.5 46 L 187 43.5 L 188.5 40 Z " /><path fill="rgb(49,164,212)" stroke="rgb(49,164,212)" stroke-width="1" opacity="0.16470588235294117" d="M 261.5 41 L 266 41.5 L 261.5 42 L 261.5 41 Z " /><path fill="rgb(49,164,212)" stroke="rgb(49,164,212)" stroke-width="1" opacity="0.16470588235294117" d="M 192.5 45 L 192 46.5 L 191.5 48 L 191 46.5 L 192.5 45 Z " /><path fill="rgb(49,164,212)" stroke="rgb(49,164,212)" stroke-width="1" opacity="0.16470588235294117" d="M 189.5 48 L 191 50.5 L 189 49.5 L 189.5 48 Z " /><path fill="rgb(49,164,212)" stroke="rgb(49,164,212)" stroke-width="1" opacity="0.16470588235294117" d="M 203.5 49 Q 205.8 48.3 205 50.5 L 203.5 49 Z " /><path fill="rgb(49,164,212)" stroke="rgb(49,164,212)" stroke-width="1" opacity="0.16470588235294117" d="M 187.5 52 L 188.5 54 L 189.5 52 L 190 55 L 192 55.5 L 189.5 56 Q 185.9 54.9 187.5 52 Z " /><path fill="rgb(49,164,212)" stroke="rgb(49,164,212)" stroke-width="1" opacity="0.16470588235294117" d="M 171.5 54 L 174 55.5 L 172.5 55 L 171.5 54 Z " /><path fill="rgb(49,164,212)" stroke="rgb(49,164,212)" stroke-width="1" opacity="0.16470588235294117" d="M 193.5 55 L 200 55.5 L 193.5 56 L 193.5 55 Z " /></svg>